 <svg id="Layer_1" data-name="Layer 1" xmlns="http://www.w3.org/2000/svg" viewBox="0 0 160.54 136.22"><defs><style>.cls-1{opacity:0.85}.cls-2{fill:#202020;}.cls-3{stroke:#000;stroke-miterlimit:10;stroke-width:0.25px;}</style></defs><title>Ink Society</title><g class="cls-1"><path class="cls-2" d="M124.51,35.73l-1.78-3a14.33,14.33,0,0,1,.7,1.64A4.15,4.15,0,0,0,124.51,35.73Z"/><path class="cls-2" d="M120.88,30.07l-.37-.5-.37-.39Z"/><path class="cls-2" d="M116.86,25.51c.69.82,1.4,1.56,2.1,2.27A23,23,0,0,0,116.86,25.51Z"/><path class="cls-2" d="M119.86,29.3c-.14-.36-.16-.58.27-.14l0,0L119,27.78A12.37,12.37,0,0,1,119.86,29.3Z"/><path class="cls-2" d="M119.86,29.3c.13.35.4.87.47,1.06A11.16,11.16,0,0,0,119.86,29.3Z"/><path class="cls-2" d="M117,29.69c-.44-.39.19-.74-.71-1.5-1-.93-1.92-1.81-2.86-2.61s-1.94-1.51-2.88-2.36a3.55,3.55,0,0,1-.7-.67l-.74-.83a6.61,6.61,0,0,0-1.51-1.43,19.81,19.81,0,0,0-2.26-1.3c-.89-.4-1.81-.8-2.54-1.09-1.46-.58-2.16-.74-.43.29a51,51,0,0,1,12.3,9.31c.79.78,1.62,1.53,2.39,2.32l2.17,2.51c.36.42.74.84,1.08,1.27l1,1.38c.64.92,1.31,1.86,2,2.82.59,1.15,1.07,2.27,1.55,3.39l-.91-2.27-.48-1.19c-.18-.39-.4-.78-.61-1.18a17.33,17.33,0,0,0-2.34-3.25A44.3,44.3,0,0,1,117,29.69Z"/><path class="cls-2" d="M131.23,60.23l-.33-1.79a7.7,7.7,0,0,0,0-2.05c-.05-.69-.14-1.38-.25-2.07s-.25-1.38-.39-2.07-.43-1.35-.65-2l0,1.29a5.74,5.74,0,0,0,.42,1.26c.07.06.16-.28.06-1,.1,1.66.17,3.25.36,4.81,0,.39.11.78.13,1.17l0,1.17c0,.78.09,1.56.14,2.35C130.95,61.1,131.17,61.14,131.23,60.23Z"/><path class="cls-2" d="M130.91,63.16l-.15-1.85-.06.07.2,1.85Z"/><path class="cls-2" d="M106.77,17.66a57,57,0,0,0-21-8.52A4.08,4.08,0,0,1,84,9.1a14,14,0,0,0-1.67-.51c-1.06-.18-2.14-.16-3.2-.26H78c-.6.05-.43.17-.06.3a11.12,11.12,0,0,1,1.1.32c-.2-.07-.74-.19-1.1-.32a14.71,14.71,0,0,0-1.72-.29c-1,.08-2,.17-3,.18a21,21,0,0,1,3-.18H78l.52,0a56.13,56.13,0,0,0-7.33,0,8.9,8.9,0,0,0-1.52.22,15.29,15.29,0,0,1-4.61.54l-1.28.3h.26l-.49.06-2.7.65c-.45.12-.91.2-1.35.34l-1.32.46C57.1,11.43,56,12,54.87,12.53c0,0-.22,0-.48.07l-.79.13A8.42,8.42,0,0,1,51.89,14c1-.24,1.91-.41,2.72-.64,1.25-.16,2.32-1.64,3.91-1.52-1.59-.12-2.66,1.36-3.91,1.52-.81.23-1.72.4-2.72.64-.38.22-.79.44-1.23.65l-.67.31-.66.36a23.59,23.59,0,0,1-2.71,1.23,14.56,14.56,0,0,1,2.67-1.71A12.65,12.65,0,0,1,51.89,14a8.42,8.42,0,0,0,1.71-1.22l.79-.13c.26,0,.48-.07.48-.07,1.12-.52,2.22-1.1,3.31-1.65a44,44,0,0,0-5.14,2,43,43,0,0,0-5,2.51l-2,1.14-1,.57-.92.66c-1.21.89-2.45,1.75-3.63,2.66l-3.35,3c-1.1,1-2.05,2.15-3.08,3.22a57.83,57.83,0,0,0-9.54,14.9,57.19,57.19,0,0,0-2.84,35.88,58.07,58.07,0,0,0,22,33,54.35,54.35,0,0,0,17.48,8.45,60,60,0,0,0,9.42,1.82l4.78.27a18.67,18.67,0,0,0,2.39,0l2.39-.1a63.17,63.17,0,0,0,18.76-4.15,66.49,66.49,0,0,0,17.18-10.13l1.61-1.32c.54-.48,1.05-1,1.61-1.6l1.68-1.75.87-.92.8-1,1.63-2.12a20.23,20.23,0,0,0,1.58-2.25l1.46-2.39a22.14,22.14,0,0,0,1.38-2.46l1.22-2.54A23.5,23.5,0,0,0,131,85.53c.61-1.74,1.26-3.42,1.76-5.06L134,75.7c.33-1.5.46-2.92.66-4.18.05-.86.09-1.63.1-2.33s-.11-1.33-.18-1.89a14.41,14.41,0,0,0-.52-2.57c-.4-1.23-.89-1.59-1.36-1.52-1,.15-1.86,1.93-2,2.21-.38,1-.69,1.87-1,2.78s-.63,1.79-.87,2.69-.5,1.82-.72,2.78l-.9,3a52.11,52.11,0,0,1-2.54,6.92c-.64,1.25-1.39,2.57-2.18,4a18.27,18.27,0,0,1-1.42,2.1l-1.63,2.19c1.51-2.07,2.13-2.67,2.08-2.25A5.77,5.77,0,0,1,121,90.9L120.43,92a9,9,0,0,1-.81,1.31c-.65.9-1.41,1.93-2.25,3a14.24,14.24,0,0,1-1.4,1.55l-1.53,1.54a24.3,24.3,0,0,1-3.34,2.77c-.57.42-1.13.82-1.68,1.19s-1.16.63-1.71.91q-1.21.58-2.41,1.23c-.8.45-1.7.76-2.54,1.19l-2.59,1.25q-1.37.53-2.75,1.12l-1.38.6c-.46.2-1,.33-1.44.5l-2.93,1c-1,.36-2,.54-3.05.83l-1.55.41-.78.21-.8.13a49.24,49.24,0,0,1-6.48.87c-1.1.06-2.2.21-3.3.19l-3.31-.11c-.55,0-1.11,0-1.65-.08l-1.63-.24c-1.08-.16-2.17-.31-3.24-.5L62.73,112l-1.54-.43c-.5-.18-1-.4-1.47-.59-1-.4-2-.79-3-1.18s-2-1-3-1.44l-1.55-.74c-.51-.28-1-.6-1.51-.91-1-.63-2.08-1.21-3.1-1.95A53.44,53.44,0,0,1,27.06,73.73a50.92,50.92,0,0,1-.57-19.09A48.17,48.17,0,0,1,33.6,36.12a59.83,59.83,0,0,1,12.93-15,20.94,20.94,0,0,1,2.88-1.88l1.49-.87.74-.42.78-.34,3-1.32c.93-.47,1.91-.7,2.76-1a77.19,77.19,0,0,1,7.78-2.46,69.21,69.21,0,0,1,7.34-1.28,52.51,52.51,0,0,0-7.34,1.1c-1.16.3-2.33.67-3.57,1-.61.19-1.27.32-1.91.58l-2,.78c-1.86.7-1.3.25,0-.52.68-.37,1.54-.89,2.42-1.27s1.77-.68,2.41-.89a6.45,6.45,0,0,1,2-.28,7.65,7.65,0,0,0,2.06-.09c1.23-.18,2.39-.47,3.59-.72l3.78-.53c1.15-.21,1,.48,1.59.42a42.68,42.68,0,0,0,4.93-.33,15.65,15.65,0,0,1,3.94.27A35.06,35.06,0,0,1,90,12.43c1,.28,1.9.53,2.88.91l1.94.52a1.79,1.79,0,0,1-.59-1c.91.4,2.18,1,3,1.42-.87-.45-2.14-1-3-1.42a1.79,1.79,0,0,0,.59,1l1.8.49c.6.2,1.19.45,1.79.68,1.2.5,2.48.91,3.68,1.51l3.6,1.87c1.19.66,2.28,1.46,3.4,2.17l0-.09c-2.48-1.88-5-3.5-7.65-5.46.6.36.82.61.72.64a4.79,4.79,0,0,1-1.24-.45l-.94-.85,2,.78c.63.29,1.23.65,1.83,1s1.17.72,1.72,1.12A8.19,8.19,0,0,1,107,18.6l1.57.87c.65.61.48.76.51,1l1.5,1.06a26.59,26.59,0,0,0-2.22-2.35l-1.14-1.1C107,17.83,106.77,17.66,106.77,17.66Z"/><path class="cls-2" d="M76.14,8.31l1.52,0-1.53-.1-1.54.05-3.08.11A15.13,15.13,0,0,0,76.14,8.31Z"/></g><path class="cls-3" d="M130.38,41.64c.61-.46.33,1.19,1.32.51.17-.23-.33-.63.11-.8,2.1,0,4.19-1.71,6-3-.22.45.28,1.14-.17,1.59-.66.8-2.65,1.08-1.71,2.5a6.32,6.32,0,0,1-.61,4.78c.88,2.22,3.53.46,4.58,2.62a1.44,1.44,0,0,1-.94,1c-1.21.45-2.37-.63-3.48.11.11.57.44,1.14.22,1.71-.88,1.48-1.55,3.3-2.37,4.44-.61-.45-.72-1.42-1.38-1.65-.22.57-1.16.28-1,1.14-.5.34-1-.23-1.33-.57-.72.4.28,2.9-.88,2-.61.17-.22-.8-.33-1a1.34,1.34,0,0,0,.44-.34c-.88-1.59-.94-3.42-1.77-5-1.49.06-2.15,1.76-3.59,2.28,0-.45.77-.8.94-1.31l-.06-1.31c-1.54-.28-1.16-1.82-2.15-2.45.28-.11.83,0,1.16-.23,1,.06.28-1.25,1.1-1.48,0-.68-.83-1.08-1.16-1.65-.72.11-1.16-.51-1.82-.28-.66-.17.22-.68.06-1,1.32.29,2.7,1.14,4.08.8-.11-.91.94.11.72-.8l-.5-.57c.28,0,.5-.11.5-.45a6.66,6.66,0,0,0-1-1.2c.28-.06.77.06,1-.34l-.28-1A2.88,2.88,0,0,0,128.28,42c.27-.34-.28-.8-.11-.91.11.17.33.63.61.63a4.61,4.61,0,0,0,.22-3.41c.11.34.28-.11.44-.11A22.59,22.59,0,0,0,130.38,41.64Z"/><path d="M122.91,31.24c-.54.76.87,1.9.8,2.9-.08.44-.7-.18-.88.17a7.37,7.37,0,0,0,.55.56c-.21,0-.72-.37-.81,0a2.67,2.67,0,0,0,.15,1.23c-.62.43-2.65-1.11-2.08.56-.24-.29-.18-.71-.52-.88s-.29,1.19-1,.42c0-.16-.12-.36-.33-.33-.54-.09-.18.77-.66.62-.22-.66-.91-1.21-.74-1.83-.26-.48-.85-.36-1.12-.55-.65-.52.14-.94-.39-1.53a3,3,0,0,1-1.67-.9c.66-.06.06-.71,0-1,1.08,0-.05-1.49.78-1.61-.2-.13-.51-.19-.49-.43.4,0,.8.7,1.09.23,0-.26.59-.12.46-.53,0-.19-.53-.38-.29-.51a3.9,3.9,0,0,0,2,0c.41,0,.45.69.85.44.09-.18-.16-.52.11-.62,1.12.76,2.41,2.17,3.89,2.44A1.34,1.34,0,0,1,122.91,31.24Z"/><path d="M50.05,57.38v4.68q0,1.8,0,2.12.22,1.62,1.21,1.62a8.15,8.15,0,0,0,1.12-.18,2.34,2.34,0,0,1,.67-.07q1.7,0,1.7,1.19a1,1,0,0,1-.56.86,2.57,2.57,0,0,1-1.41.36,21.53,21.53,0,0,1-2.17-.16q-1.46-.16-2.18-.16-1.17,0-2.6.14-1.75.18-2.33.18-1.79,0-1.79-1.22t1.53-1.19a7.6,7.6,0,0,1,1.06.11,7.52,7.52,0,0,0,1.06.11q1.08,0,1.31-2.3V54.25Q46.47,52,45.35,52a5.75,5.75,0,0,0-1,.13,5.65,5.65,0,0,1-1,.13q-1.62,0-1.62-1.15t2-1.22q.85,0,1.21,0,1.43.14,1.83.14a10,10,0,0,0,1.1-.09,10.08,10.08,0,0,1,1.09-.09q1.3,0,1.3,1.4a3.81,3.81,0,0,1,0,.43,3.83,3.83,0,0,0,0,.43q0,.29-.07,2.23Q50.05,55.83,50.05,57.38Zm-2.32-9.43A2.72,2.72,0,0,1,46,47.36a1.77,1.77,0,0,1-.74-1.42,1.73,1.73,0,0,1,.74-1.4,3,3,0,0,1,3.53,0,1.73,1.73,0,0,1,.74,1.4,1.77,1.77,0,0,1-.74,1.42A2.73,2.73,0,0,1,47.73,47.95Z"/><path d="M63.5,50.92v1a9.56,9.56,0,0,1,7.15-2.74,10.75,10.75,0,0,1,4.56,1,5.85,5.85,0,0,1,2.9,2.47,7.06,7.06,0,0,1,.63,3.2v6.84q0,1.55,0,1.84Q79,65.77,80,65.77a8,8,0,0,0,1-.09,7.81,7.81,0,0,1,.92-.09,1.61,1.61,0,0,1,1,.32,1,1,0,0,1,.42.79,1.06,1.06,0,0,1-.54.9,2.28,2.28,0,0,1-1.3.36q-.63,0-2.06-.14t-2.68-.14q-1.16,0-1.92.07L72.53,68q-1.79,0-1.79-1.26t1.55-1.12a5.32,5.32,0,0,1,.82.07,9.28,9.28,0,0,0,1.09.14q1.09,0,1.19-2V57.06a10.34,10.34,0,0,0-.22-2.63,3.53,3.53,0,0,0-1.74-2.12,6.69,6.69,0,0,0-3.34-.83q-3.56,0-5.12,2.05-1.07,1.4-1.07,4.79v4.79a5.82,5.82,0,0,0,.27,2.16,1,1,0,0,0,1,.58,5.27,5.27,0,0,0,1-.13,5.42,5.42,0,0,1,1-.13q1.38,0,1.39,1.21T66.77,68q-.36,0-2.32-.22a20.11,20.11,0,0,0-2.19-.11q-.94,0-2.5.14-2,.18-2.23.18-1.88,0-1.88-1.22t1.46-1.15a5.92,5.92,0,0,1,.84.11,6.93,6.93,0,0,0,1.21.11q1.37,0,1.41-2.09V54.11a3.84,3.84,0,0,0-.39-1.67,1.13,1.13,0,0,0-1-.45,7.06,7.06,0,0,0-.93.09,7,7,0,0,1-.93.09q-1.64,0-1.64-1.15t2-1.19a2.33,2.33,0,0,1,.45,0l1.65.14A7.59,7.59,0,0,0,61,49.91l1.21-.09Q63.5,49.82,63.5,50.92Z"/><path d="M92.1,58.71,99.74,53a.8.8,0,0,0,.4-.65c0-.24-.19-.36-.58-.36a8.44,8.44,0,0,0-1.3.14,8.39,8.39,0,0,1-1.3.14q-1.56,0-1.56-1.15t2-1.26q.49,0,1.25.07,3.08.29,4.69.29a13.51,13.51,0,0,0,1.52-.07l1.83-.22a9.49,9.49,0,0,1,1-.07q2.19,0,2.19,1.24t-1.52,1.17a7.73,7.73,0,0,1-1-.09,7.92,7.92,0,0,0-1-.09A3.93,3.93,0,0,0,104,53l-4.69,3.46c-.33.24-.49.43-.49.58s.12.3.36.54l5.72,6q2.19,2.27,3.13,2.27a4.91,4.91,0,0,0,.74-.09,5.07,5.07,0,0,1,.83-.09q1.61,0,1.61,1.15T109.17,68q-.8,0-2.39-.14t-2.39-.14q-.72,0-2.08.14c-.91.1-1.59.14-2,.14q-1.7,0-1.7-1.22t1.61-1.15a5.64,5.64,0,0,1,.71,0,6.46,6.46,0,0,0,1,.18c.27,0,.4-.08.4-.25v-.11a.1.1,0,0,1,0-.07l-.45-.5-.58-.68L96.8,59.4q-.45-.47-.71-.47a1.6,1.6,0,0,0-.67.36L92.1,61.67v.83q0,1.73,0,1.94.22,1.26,1.25,1.26a4.54,4.54,0,0,0,.76-.05,5.28,5.28,0,0,1,.85-.05q1.52,0,1.52,1.19T94.83,68q-.76,0-2.3-.16t-2.35-.16a22.56,22.56,0,0,0-2.37.14q-1.7.18-2.28.18-1.74,0-1.74-1.19t1.7-1.19a6,6,0,0,1,.85.07,7.89,7.89,0,0,0,1,.11q1.07,0,1.21-1.37l.13-1.4V48.45A9.08,9.08,0,0,0,88.35,46a.92.92,0,0,0-.95-.52q-.23,0-.86.07a4.57,4.57,0,0,1-1.26.18q-1.49,0-1.49-1.12t1.75-1.22q.9,0,1.26,0,1.12.11,1.48.11t1.06-.07q.7-.07,1-.07h.31a1.29,1.29,0,0,1,1.44,1.47Z"/><path d="M54.73,81.5c.84.67,2.27,1.76,3.63,1.76a2,2,0,0,0,1.3-.38.73.73,0,0,0,0-1.09c-1.11-.94-4.43-2.25-4.43-4.41,0-2.88,3.25-5.33,5.12-6.13,1-.42,2-.59,2.71,0a3.78,3.78,0,0,1,1,1.76,2.69,2.69,0,0,1-.61,2.1A24.3,24.3,0,0,0,62,77.49c-.1.19-.23.29-.46.06a1.69,1.69,0,0,1-.21-2c.44-1,2-2.75,1.51-3.28-.71-.73-5.88,2.48-6,5.1-.06,1.37,2.62,2.48,3.8,3.32.8.57.69,1.53-.23,2.6-1.26,1.45-4.91,1.85-7.87-1.72-.23-.27-.15-.42,0-.48A2.41,2.41,0,0,1,54.73,81.5Z"/><path d="M68.82,79.63c-.44,1.79-1.76,3.91-3.32,4.43a2.31,2.31,0,0,1-2.65-.92c-.92-1.22-.61-3,.34-4.72.8-1.43,2.08-2.65,3.34-2.73A1.43,1.43,0,0,1,68,76.4c.48.65,1.11.8,1,2.31,0,.17,0,.31,0,.48.13,0,.25,0,.42,0s.15.1.06.21A.86.86,0,0,1,68.82,79.63ZM67,79.1a2.61,2.61,0,0,1-1-1.85,7.34,7.34,0,0,0-1.62,2c-.88,1.6-1.2,3.53-.65,4S65.67,83,66.7,81a11.08,11.08,0,0,0,.73-1.68A1.57,1.57,0,0,1,67,79.1Zm.71-1.87c-.1-.67-.52-.55-.63.06a1.73,1.73,0,0,0,.46,1.49A4,4,0,0,0,67.75,77.24Z"/><path d="M75.52,76.92c.44.88-.4,2-.82,3.13-.08.25-.17.31-.44.17-.5-.25-.8-.88-.5-1.83.23-.76.86-1.66.57-1.89s-1.93,1.05-2.88,3c-1.15,2.37-.71,4.12.52,4.14,1.76,0,3.28-1.66,4.14-3,.1-.17.29-.19.38,0a1.9,1.9,0,0,1-.38,1.26,5.24,5.24,0,0,1-4.05,2.29c-2.67,0-3.57-2.56-2.2-5.27s3.46-3.78,4.51-3.15A2.78,2.78,0,0,1,75.52,76.92Z"/><path d="M75.75,81.12A25.93,25.93,0,0,1,78.44,76c.19-.25.34-.31.5-.13a2.2,2.2,0,0,1,0,2.29c-.44.92-1.32,2.35-1.76,3.4-.5,1.22-.46,2,.21,2,.94,0,2.1-1.43,2.73-2.88.11-.19.25-.17.34,0a1.5,1.5,0,0,1-.15,1.3,3.77,3.77,0,0,1-3.13,2.18C75.56,84.19,75.16,82.84,75.75,81.12Zm4.68-5.48a.76.76,0,0,1-1.18-.32,1.3,1.3,0,0,1,.1-1.55c.34-.36.95-.11,1.22.46A1.27,1.27,0,0,1,80.43,75.64Z"/><path d="M82.81,83.6c1.74.08,3.28-1.6,4.18-3,.1-.17.27-.17.36,0a1.7,1.7,0,0,1-.36,1.3,5.32,5.32,0,0,1-4.12,2.27c-2.67,0-3.59-2.58-2.23-5.29s3.51-3.8,4.56-3.19a3.92,3.92,0,0,1,1.24,1.09c.38.5.21,1.78-.67,2.86-1,1.26-2.44,1.81-3.91.61C81.19,82.21,81.69,83.53,82.81,83.6Zm1.74-4.83c.67-.88,1.13-2,.84-2.2s-2.18.9-3.17,2.9c-.06.13-.12.25-.17.36C83.08,80.47,83.94,79.57,84.55,78.77Z"/><path d="M87.89,75.16c-.21-.29-.08-.44.23-.42a11.82,11.82,0,0,0,1.74-.08,27,27,0,0,1,1.6-2.6c.19-.27.4-.25.5,0a2.87,2.87,0,0,1-.27,2.37,1.32,1.32,0,0,1,1.3.63c.15.25.06.4-.25.4a6.25,6.25,0,0,0-1.64.08c-.82,1.41-2,3.44-2.81,5.21-.69,1.53-.46,2.83.42,2.88s2.14-1.45,2.92-3c.13-.25.36-.29.44,0a1.75,1.75,0,0,1-.21,1.2c-.27.61-1.66,2.46-3.34,2.39-1.39,0-2.5-1.6-1.49-4,.44-1,1.32-2.81,2.22-4.47A1.73,1.73,0,0,1,87.89,75.16Z"/><path d="M95.2,84.65c-1.18,2.81-2.67,6.19-4.41,6.87a.9.9,0,0,1-1.2-.44,2.64,2.64,0,0,1-.42-2.6c.63-1.89,2.41-3.15,4.49-4,.21-.48.42-1,.65-1.51A3.09,3.09,0,0,1,92,84.14c-1.51-.12-1.55-1.66-1.07-3a22.4,22.4,0,0,1,2.86-5.31.29.29,0,0,1,.52,0c.5.67.38,1.55-.4,2.79a19.23,19.23,0,0,0-1.62,3.07c-.42,1-.38,1.76.11,1.81.82.06,1.87-1.28,2.94-3.11.9-1.55,1.81-3.44,2.54-4.51.19-.27.34-.31.52-.15A2.31,2.31,0,0,1,98.35,78c-.63,1.22-1.91,3.74-2.79,5.77a11.18,11.18,0,0,0,3.72-3.23c.1-.15.29-.17.34,0a1.88,1.88,0,0,1-.38,1.22A8.13,8.13,0,0,1,95.2,84.65ZM90,90.36c.27.4,2-1.89,3.3-5C90.58,87,89.63,89.83,90,90.36Z"/></svg>
